<svg xmlns="http://www.w3.org/2000/svg" viewBox="0 0 501.22 173.43" id="logo"><defs><style>.cls-1{fill:#fff;}</style></defs><g id="レイヤー_2" data-name="レイヤー 2"><g id="ロゴ"><path class="cls-1" d="M202.09,154.61l-.71.44-1.8,0-.74-.71-.26-.89.09-2.24,0-1.55,0-2.09.31-.67.71-.66.47-.18,1,.06.73.4.6.77,0,.9-.34.34-.38-.07-.27-.24-.1-.47-.22-.17-.51-.16-.47.1-.3.48,0,1.63-.16.73,0,.82-.11,2.1v.31l.5.46h.51l.3-.14.24-.27.07-.55.3-.35.56,0,.44.71Z"/><path class="cls-1" d="M210.45,154.75l-.22.26h-.65l-.45-1-.1-.87-.32-.32h-.55l-.18-.17-1,.19-.37.44-.15,1-.15.34-.47.4-.4-.08-.35-.38.07-.72.16-.26.14-.82.29-.88.07-.56.32-.82,0-.64.45-2.38.28-1.2.41-.41.95,0,.35.58v.22l.15.17v.64l.26.33.18.79.21,1.06.14.22.11,1.06.18.3.1.72.18.25v.4l.23.24v.73l.28.64Zm-1.94-3.56-.1-.08-.09-.51-.23-.39,0-.38-.26-.72-.17.16-.14,1-.29.56v.26l.09.31.32.16.65.07.24-.18Z"/><path class="cls-1" d="M217.19,155.33l-.55.22-2.85-.09-.21-.15-.19-.15-.1-4.85.13-3.88.34-.25.73.06.23.25,0,1.12-.21,5.08.17.42-.15.9.1.22,2,0,.48.15.18.32Z"/><path class="cls-1" d="M224.05,155.33l-.55.22-2.85-.09-.21-.15-.18-.15-.11-4.85.13-3.88.34-.25.73.06.23.25,0,1.12-.22,5.08.17.42-.15.9.1.22,2,0,.49.15.18.32Z"/><path class="cls-1" d="M234.14,153.81l-.32.66-.72.52-.55.16-.74-.07-.73-.37-.5-.64-.19-.89.17-.31,0-1,.22-.57V151l-.34-1.23-.05-1.59.25-.48,0-.59,1-.81.39-.1.81.06.75.38.49.64.06,2.48,0,.65,0,1Zm-1.46-6.4-.81-.08-.25.35-.15,1,.18.38-.11,2,0,1-.11,1.37.24.38.82.23.33-.26.2-.65v-3.22l0-2.11Z"/><path class="cls-1" d="M241.06,147.14l-.57-.24-.58.26-.95.11-.15.49.09.72v.39l0,1,.25.14.95,0,.43.16.24.42-.08.47-.14.18-1.53.11-.25.24,0,3.16-.38.41h-.56l-.35-.47.12-2.36-.06-2.41.16-.64,0-1.63.14-1.22.23-.17h.42l.38-.25,1.46,0,.48.15.56.08.18.24v.4Z"/><path class="cls-1" d="M250.7,147.36l-.74,0-.13.25.16,5.8-.05,1.46-.16.23-.17.18-.48-.07-.27-.56,0-1.94,0-.25,0-.87-.05-2.26,0-1.69-.32-.24-.65-.07-.43-.38.07-.5.47-.33,2.92.15.26.16.09.26v.21Z"/><path class="cls-1" d="M258.09,154.81l-.41.26-.4-.07-.34-.33,0-1.37.13-1.94-.66-.54-.89.35-.14.14.06,2.92-.15.57-.41.33-.32-.07-.33-.49-.1-3.79v-.95l0-1.38.15-.33-.09-.82,0-.87.33-.42h.39l.34.32.17,1-.13.65.18,1.45-.08.18v.25l.25.22,1.12-.11.25-3.54.31-.27.5.09.24.38-.13.64.12,2.58-.14.17.15,2.83.17,1.46Z"/><path class="cls-1" d="M265.39,154.66l-.33.35-3.06.07-.34-.41-.11-3.95.11-2.49,0-1.29.16-.49.13-.25.41-.26,1.13.14,1,0,.23.4h.26v.25l-.26.18-1.75.21-.17.14,0,1.55v.48l.18.49.17.15,1.46,0,.33.42-.16.56-.3.18-1.55.1-.15.5.19,1-.07.48,0,.67.17.14,1.29-.12h.56l.35.15.22.33Z"/><path class="cls-1" d="M276,151.93l0,2.36-.24.48-.24.17h-.4l-.39-.32-.37-1.21-.16-.24-.1-.48-.15-.24-.19-.79-.35-.89-.14-.16-.17.17-.13,1.86,0,1.84-.24.43-.23.09h-.25l-.48-.54.13-1.72v-3.7l0-.6.12-2.15.17-.09.48.08.58.85.09.51.26.38.6,1.53.18.73.17.21h.06l.18-3.23,0-.8.25-.32.55,0,.19.48.1,1,.16.95Z"/><path class="cls-1" d="M280.62,155h-.7l-.34-.3-.09-4.29v-.55l.19-2.68v-.72l.38-.4.25.05h.14l.17.15,0,1.55-.15.39-.31.34.4.39-.2.48.31.34-.07.8.05,1.94.11,1.11,0,1Z"/><path class="cls-1" d="M288.25,153.16l-.07.48-.31.9-.73.58-1.29,0-.81-.62-.42-.47-.18-.64.12-2.28-.21-2,.2-1.86.46-.73.72-.5.47-.09.82.14.57.3.62.8v.48l-.42.42-.55-.15-.26-.41-.4-.3H286l-.41.56,0,1.72-.13.71.17,1.36-.14.34,0,1.54.33.47.25.17.55-.27.47-.49-.05-1.78-.39-.39-.43-.07-.14-.4.07-.25v-.17l.39-.23,1.12,0,.52.46Z"/><path class="cls-1" d="M295.53,154.81l-.41.26-.4-.07-.34-.33,0-1.37.14-1.94-.67-.54-.89.35-.13.14.06,2.92-.16.57-.41.33-.31-.07-.34-.49-.09-3.79,0-.95.05-1.38.16-.33-.1-.82,0-.87.32-.42h.4l.34.32.17,1-.13.65.18,1.45-.09.18v.25l.26.22,1.12-.11.25-3.54.3-.27.51.09.24.38-.13.64.12,2.58-.15.17.16,2.83.17,1.46Z"/><path class="cls-1" d="M301.68,147.36l-.74,0-.13.25.16,5.8-.05,1.46-.16.23-.17.18-.48-.07-.26-.56-.05-1.94v-.25l0-.87-.05-2.26,0-1.69-.31-.24-.65-.07-.44-.38.07-.5.47-.33,2.92.15.27.16.08.26v.21Z"/><path class="cls-1" d="M58,126.17l.14-.93.07-.94.33-.91v-.94l0-1,.25-.91-.09-1,0-1,.29-.91.16-.92-.18-1,.2-.92.29-.92-.1-1,0-1,.36-.91,0-.94-.19-1,.23-.92.19-.93.13-.93.12-.93.07-.94.09-.93.28-.92.11-.93.07-.94-.17-1-.06-1,.32-.92-.11-1,.34-.91-.1-1,.32-.91.24-.93-.17-1,.34-.92-.29-1,.44-.91-.19-1,0-.95.31-.92.15-.93L62,85l.37-.91v-.94l.31-.92-.33-1,.38-.91.14-.93-.22-1,.33-.92.2-.92-.16-1,.39-.92.06-1-.09-1,.17-1,.73-.76.63-.77.91-.4.84-.7,1-.14,1,.13.91-.43,1,.07.91-.44,1-.11,1,.12.9-.46,1-.11,1,.21.88-.62.95-.16L79,67l1-.1.94-.27,1,.1,1-.09.9-.48,1-.11,1-.15.87-.25.92-.11h.94l.91-.1.89-.26.9-.14.89-.19.93,0,.86-.49,1.06.16,1-.27,1.1.16v-.93l.25-.88-.1-.92.23-.88-.28-.93L97.6,59l-.09-.93.12-.9-.84.43-.91.27-.73.65-1,.14-.9.27-.84.41-.82.5-.88.33-.93.19-.89.31-1,.06L87,60.9l-.89.39-1-.11-.92.17-.91.17-.91.12-.92.14-.86.48-1-.22-.87.41-.9.17-.89.31-1-.25-.87.42-1-.12-.9.28-.86.46-.9.22-1-.12-.92.15-.9.28-.93.11-.22,0-1.06-.08L65.51,64,65,62.83l0-1.19.12-1,.21-1-.29-1,.36-.94-.09-1,.29-.94,0-1-.08-1,.1-1,.57-.91-.25-1,0-1,0-1,.24-1,.22-.95.15-1-.08-1,.16-1,.2-1,.15-1,.12-1-.23-1,.49-.93,0-1-.16-.87-.73.33h-1l-.82.46-.93.18-.72.72-1,.06-.75.65-1-.09-.84.4-.87.33-.74.68-.9.27L56,42l-.91.23-.87.34-.89.27-.92.23-.91.23-.8.55-.84.41-1,.13-.89.29-.85.43-.87.35.57.7.7.56.47.77.7.66.39.85.13.93.12.91,0,.92.23.9-.36.91.2.17.08,1-.21,1,0,1,0,1-.29.93.3,1-.31.94-.21.94.22,1-.16.94.12,1-.08,1-.33.93-.13,1-.08,1L48.1,69l.25,1-.44.92.34,1-.11,1-.45.93.1,1,.16,1-.41.93-.2,1,0,1-.15,1,0,1,.1,1-.29.94.06,1,0,1-.1,1,0,1-.08,1-.15,1,.09,1-.13,1-.26.94.07,1v1l-.23.93-.16.95.28,1-.13.95-.07,1-.38.92-.06,1-.17,1,0,.95.21,1-.11.94,0,1-.09.94-.41.92-.11,1,.06,1-.11.94-.08,1,.1,1-.23.94.28,1-.07.94-.38.93,0,1-.27.93v.95l.33,1-.17.94-.14.94-.1.94,0,.94-.25.93L44,124l-.23.91-.47.85-.82.41-.86.19-.77.44-.14-.2-1,.25-1,.32-1-.11-1,0-1,.26-1-.41-1,.2-1,.19-.95.25-1-.3-1,.09-.95.34-1-.18-.94.36-1-.07-.85.33-.89-.11-.88.07-.89,0-.89.46-1,.11-1,.14-.85.47-1,.06-.82.57-.83.48-1,.14-.86.41-.74.65-.85.41-.79.54-.78.53-1,.28-.68.68-.7.65-.87.45-.75.62-.55.79-.66.69-.71.66-.28,1-.55.77-.36.88-.56.77-.54.79-.43.86-.43.85-.38.88,0,1-.46.85-.08,1-.43.87,0,1-.37.9.11,1-.59.88.2,1L0,154l.14,1v1l0,1,.37.91.12,1,.76.71.16,1,.77.64.71.65.78.54.74.59.81.49.71.72,1,0,.78.66,1-.06.84.57,1,.15.95.18,1-.14.92.38.95.1,1,.07,1,0,1,0,1-.22.95,0,1,.34h1l1-.09,1-.11.95-.14,1,0,.93-.43.45.41.89-.55,1,.12.95-.18,1-.07.82-.67,1,0,.87-.42.86-.44,1-.1.87-.39,1-.1.76-.66.86-.41.8-.52,1-.14.85-.45.85-.47.57-.86.82-.5.92-.36.62-.77.75-.59.57-.78.73-.62.82-.54.66-.69.39-.93.76-.61.62-.74.49-.82.44-.85.72-.69.32-.92.6-.77,0-1,.85-.66.26-.94.37-.89.29-.91.27-.92.23-.93.29-.91.26-.92.11-1,.55-.85.2-1,.52-.83.78-.58.75-.65h1l.84-.29.89.44.92.24.92.26h1l.92.25.91.29.9.32.85.48.89.33.82.52.87.37L71,139l.92.27.82.49,1,.13.66.78,1,.15.6.85.88.39,1,.25.73.62.73.62.81.5.87.44.6.78.83.59.08-1,.25-.92.14-.94.57-.83-.12-1,.62-.83-.16-1,.43-.87.18-.94.28-.91.16-.94.19-.87-.86-.23-1-.13-.9-.39-1-.12-.93-.25-.92-.3-1-.12-.93-.24-1-.15-1-.13-.9-.4-1-.19-.93-.24-.92-.3-1-.15-1,0-.85-.63-1-.1-.91-.32-1-.16-1,0-.88-.49-.93-.25-1,.18-.91-.34-.88-.52h-1l-.88-.24-.61-.69-.06-.91ZM38.11,154.66l-.65.66-.62.68-.83.44-.64.66-.68.61-.84.38-.69.63-.74.56-.92.22-.86.29-.77.57-.91.18-.94.05-.85.4-.88.29-1-.1-.95.21-.91.41-1,0v-.09l-.95,0-1,0-.95.06h-1l-.94-.22-.94-.08-.94-.08-1,.11-1-.05L13,161l-1-.11-.78-.59-.95-.26-.69-.69L9,158.71l-.88-.42-.48-.85-.88-.51-.23-1-.7-.69-.45-.85-.11-1L5,152.5l-.36-.43.26-.93-.1-.92.3-.89-.3-1,.46-.85.29-.86v-1l.57-.76.49-.78.22-.92.74-.61.5-.76.45-.85.57-.76.85-.49.65-.68.83-.47.5-.91.79-.52.95-.26.67-.72.94-.25.71-.69.88-.36,1-.12.76-.64.9-.3,1,0,.75-.75.91-.28.9-.27.93-.21.9-.34.55.16,1,0,.92-.4,1,0,1-.05.95-.1,1,0,1,.15,1,.06.95-.11h1l1-.05.95.19,1-.36.94.28,1-.16.93.28h1l.77.39.78.37.3.82.5.81-.37.95.16,1-.06.94-.05.94-.22.93.2,1-.35.91-.2.91,0,.94,0,1-.14.93-.29.89-.19.93-.43.85-.37.86-.15,1-.62.75-.41.84-.43.82-.51.78-.52.76-.29.94Z"/><path class="cls-1" d="M199.47,104.11l.9-.41.8-.45.85-.41.73-.57.57-.75.74-.59.41-.85.54-.76.4-.85.37-.88.44-.83.43-.84.49-.81.31-.9.25-.91.54-.8.31-.89.23-.92.45-.84.22-.92.25-.91.45-.85.12-1,.09-1,.34-.89.2-.92,0-1,.12-.93.3-.92-.12-1,.06-.94-.06-.94.08-.95-.3-.91V75l-.34-.89-.11-.94-.34-.88-.35-.88-.4-.85-.35-.88-.67-.71-.6-.72-.52-.82-.84-.47-.76-.58-.87-.4-.87-.38-.9-.33-1-.07-.92-.27-.95-.11-1,0-.95,0-1,0-1,.06-.94.22,0-.09-.79.34-.65.57-.56.74-.1.95-.2.93-.23.93-.22.92-.21.93-.26.92-.36.89-.27.92,0,1-.37.88-.11,1-.26.92-.23.92-.41.88-.11,1-.28.91-.21.93-.07,1-.23.93-.47.86v1l-.38.88-.22.94-.1,1-.23.92-.21.93-.23.93-.49.87-.17,1-.08,1.06-1-.11-.9-.09-.88-.19-.88-.23-.92.18-.87-.31-.9-.07-.9,0,.28-.88.16-.92.34-.87,0-1,.21-.91.39-.87.12-.93.18-.91.34-.88.12-.93.3-.89.26-.89.19-.92.16-.92.39-.86.19-.91.19-.91.11-.94.44-.85,0-1,.29-.9.31-.88.1-.94.39-.86,0-1,.16-.93.26-.91.31-.89-.09-.76-.23-.76-1.13-.3-.44.1-.91.27-.9.3-.85.43-.8.52-.92.29-.86.4-.81.49-.74.61-.85.43-.72.61-.78.54-.73.59-.8.52-.8.51-.68.66-.53.69-.07-.91.25-.89.11-.91.16-.9-.07-.93.28-.89.12-.92-.1-1,.91.43.82.35.9-.18.88.11,0-.16,1-.15,1-.17,1-.35,1-.24,1,0,.92-.44.94-.33,1-.24,1-.15.94-.34.73-.26.62-.52.2-.77.29-.9.24-.92.28-.9.3-.9.27-.91.18-.93.23-.91.09-1,.34-.89.24-.91.25-.92.08-1,.4-.88.25-.91.19-.93.37-.89.22-.93.19-.93.32-1,.09-1,0-1-.27-1-.31-1-.48-.4.94,0,.93-.18.92-.29,1,.1.95-.12L196,41l.93-.22,1-.06.94-.19.93,0-.2.61-.15.95-.12,1-.11.95-.38.9-.05,1-.41.89-.26.91,0,1-.23.92-.21.92-.43.87-.16.94-.08.95-.24.92-.38.89-.24.91-.18.94-.14.94-.27.91-.29.91-.22.93-.23.93-.06.73.4.6,1.17.57h0l.72,0,.7-.14.91-.23.93-.1h.94l.93.13.93-.09h.94l.92.15.93.1.92.1.92.13,1-.06.9.26.88.32.91.22.8.49.88.33.83.42.74.58.62.7.69.61.81.51.46.83.53.76.63.73.13,1L218,72l.29.92v1l.15.94.16.94.19.93.07,1,.22.93.11,1,0,1-.06,1,0,1,.13,1-.1,1-.2.94-.17.94.1,1-.32.91-.1,1-.06,1-.42.88,0,1-.29.91-.48.85-.12,1-.47.84-.35.88-.32.9-.27.91-.31.91-.66.74-.28.92-.44.85-.59.76-.43.85-.46.83-.57.77-.4.87-.54.69-1,0-1-.21-.94-.23-.92-.37-1,0-1-.15-1-.16-.91-.42-1-.2-1-.08-1-.07Zm39-27.42-.18-1-.25-.85-.17-.89-.32-.83L237,72.4l-.2-1-.5-.82-.27-.92-.42-.86-.44-.85-.35-.89-.36-.88-.28-.92-.45-.84-.5-.82L233,62.7l-.41-.86-.47-.84-.25-.93-.45-.84-.4-.87-.2-1-.48-.84-.5-.82-.23-.94-.35-.89-.54-.81-.37-.89-.17-1-.2,0-.37-.78-.47-.72-.36-.79-.65-.58-.41-.64.7-.63.87-.42.77-.59.8-.54.79-.56,0,.91.4.82.29.84.13.91.53.75.28.91.38.87.33.89.29.9.5.82.25.92.35.89.45.84.33.89.32.89.38.87.49.81.27.92.42.85.35.89.18.94.49.83.38.87.36.88.37.87.38.88.33.9.24.93.32.9h.29l.31.85.58.68.5.73.57.68.47.62-.68.59-.81.48-.77.54-.69.66Z"/><polygon class="cls-1" points="273.38 133.15 272.48 133.16 271.59 133.16 270.69 133.22 269.8 133.05 268.9 133.12 268.01 132.96 267.14 132.61 266.18 132.48 265.31 132.12 264.47 131.69 263.69 131.14 262.83 130.75 261.99 130.31 261.34 129.6 260.61 129.02 259.78 128.53 259.19 127.8 258.68 127 258.12 126.25 257.6 125.47 257.18 124.64 256.68 123.85 256.38 122.96 255.87 122.14 255.64 121.22 255.38 120.31 255.29 119.37 255.27 118.42 255.13 117.49 255.18 116.55 255.13 115.62 254.9 114.68 255.08 113.74 255.22 112.81 255.26 111.87 255.13 110.9 255.29 109.98 255.48 109.06 255.41 108.11 255.51 107.17 255.62 106.24 255.66 105.3 255.96 104.38 255.9 103.43 256.04 102.5 256.21 101.58 256.11 100.63 256.26 99.69 256.53 98.78 256.44 97.83 256.51 96.89 256.51 95.94 256.71 95.02 256.67 94.07 257.05 93.16 257.03 92.22 257.14 91.28 257.01 90.33 257.35 89.41 257.47 88.47 257.32 87.51 257.52 86.58 257.62 85.64 257.59 84.68 257.76 83.75 257.9 82.81 257.95 81.86 257.93 80.91 258.03 79.97 258.08 79.02 258.26 78.09 258.46 77.16 258.43 76.22 258.6 75.29 258.77 74.36 258.63 73.39 258.95 72.48 258.84 71.52 259.04 70.6 258.93 69.64 259.26 68.73 259.37 67.8 259.17 66.84 259.21 65.87 258.85 64.98 258.61 64.04 258.04 63.25 257.2 62.66 258.12 62.37 259.05 62.2 259.93 61.88 260.86 61.71 261.75 61.39 262.63 61.05 263.55 60.83 264.49 60.68 265.37 60.32 266.29 60.13 267.14 59.67 268.08 59.53 269.02 59.36 269.86 58.86 270.83 58.65 270.63 59.62 270.6 60.58 270.46 61.52 270.39 62.47 270.27 63.4 270.01 64.32 269.91 65.27 269.8 66.2 269.55 67.12 269.48 68.07 269.31 69 269.26 69.96 269.15 70.9 268.83 71.81 268.92 72.79 268.82 73.74 268.62 74.67 268.41 75.6 268.25 76.54 268.19 77.49 268.03 78.43 267.91 79.37 267.81 80.31 267.56 81.24 267.39 82.18 267.51 83.16 267.19 84.08 267.09 85.03 266.94 85.97 266.87 86.92 266.64 87.85 266.58 88.8 266.43 89.74 266.47 90.71 266.23 91.64 266.12 92.59 265.82 93.51 265.69 94.46 265.68 95.42 265.5 96.36 265.41 97.31 265.17 98.24 265.05 99.18 264.94 100.13 265.03 101.11 264.65 102.02 264.52 102.96 264.6 103.94 264.36 104.87 264.31 105.83 264.18 106.78 263.89 107.7 263.78 108.66 263.61 109.61 263.54 110.57 263.43 111.52 263.33 112.47 263.23 113.42 263.19 114.37 263.05 115.32 263.19 116.27 263.21 117.22 263.31 118.17 263.54 119.1 263.72 120.03 263.93 120.95 264.19 121.86 264.4 122.81 264.99 123.57 265.41 124.44 266.05 125.14 266.65 125.85 267.45 126.31 268.29 126.67 269.03 127.22 269.92 127.46 270.78 127.76 271.71 127.74 272.62 127.76 273.52 128.06 274.43 127.96 275.35 127.92 276.07 127.62 276.81 127.52 277.76 127.37 278.69 127.15 279.62 126.97 280.56 126.77 281.47 126.47 282.4 126.23 283.36 126.1 284.25 125.74 285.08 125.25 285.97 124.89 286.88 124.58 287.7 124.09 288.49 123.56 289.46 123.33 290.25 122.77 290.98 122.16 291.85 121.53 291.25 122.44 290.52 123.09 289.92 123.86 289.18 124.5 288.59 125.28 287.96 126.02 287.18 126.61 286.36 127.15 285.64 127.8 284.84 128.34 284.11 128.97 283.32 129.55 282.44 129.95 281.64 130.51 280.74 130.87 279.93 131.42 279.04 131.81 278.13 132.14 277.18 132.35 276.23 132.58 275.29 132.79 274.31 132.81 273.38 133.15"/><path class="cls-1" d="M317.17,113.94l.78-.5.8-.55.76-.6.79-.55.69-.68.81-.55.68-.69.64-.73.68-.68.64-.72.62-.74.59-.76.52-.82.59-.77.47-.84.49-.84.39-.88.41-.87.37-.9.26-.93.21-.94.25-.93.17-1,.12-1,.15-1,.05-1,0-1-.06-1-.15-1-.14-1-.32-.91-.37-.89-.49-.82-.66-.69-.67-.69-.83-.5-.86-.43-.92-.27-1-.14-.95-.08-1-.06h-1l0,.07-.72.32-.25.78-.12,1,0,1,0,1-.05,1-.11,1,0,1-.12,1-.2.94-.09,1-.17,1-.26.93-.2.94-.28.92-.23.94-.43.86-.45.85-.46.84-.43.87-.56.78-.67.69-.64.72-.76.59-.73.63-.82.48-.83.49-.83.47-.86.24-.86.2-.87.17-.91,0H306l-.85-.28-.79-.42-.64-.62-.59-.74-.53-.79-.36-.89-.2-.93L302,102v-1.9l.08-1,.13-.94.17-.94.29-.92.33-.9.26-.94.46-.85.45-.86.46-.85.54-.8.55-.79.58-.77L307,89l.63-.74.77-.59.77-.57.78-.57.86-.45.83-.48.88-.41.89-.37.94-.23.91-.34,1-.14.95-.15.95-.19,1-.09h.21l.93-.2h.95l.94-.11H324l.94.1h1l.92.22.92.18.9.3.85.4.82.47.74.57.71.61.59.72.56.77.41.84.33.88.22.91.28.9.11.94.05,1,0,1-.1,1-.07,1-.28.92-.14,1-.3.91-.42.87-.28.91-.43.86-.48.83-.49.82-.53.79-.59.75-.54.8-.64.71-.64.71-.66.7-.72.62-.7.66-.79.54-.71.65-.79.54-.76.58-.81.51-.85.43-.84.47-.89.36-.87.38-.88.35Zm-2.12-28.66-.11.06-.95.23-.91.33-.93.32-.84.5-.9.38-.79.59-.72.65-.74.63-.68.69-.63.74-.59.77-.5.84-.57.8-.43.87-.45.86-.36.91-.38.9-.08.14-.15.92-.13.93-.19.92-.1.92-.06.93,0,.94.24.91.39.84.57.74.65.53.74.41.83.12h.85l1-.18,1-.37.28,0,.76-.57.75-.59.67-.67.57-.76.53-.78.51-.8.45-.83.32-.89.37-.87.19-.93.35-.89.16-.93.11-.94.14-.94.18-.93,0-1,.1-.94.15-.94v-1l0-1,.09-.95v-1l-.26-.62Z"/><path class="cls-1" d="M484.13,93.27l-.91.22-.92.14h-.93l-.93.08-.93-.06-.93-.05-.93.06-.93,0-.93.06-.92-.2-.94.14-.91-.26-.92-.11-1,0-.9-.22-.9-.25-.94,0-.89-.28-.94-.05-.95-.3.31-.92-.13-.94.19-.91.1-.92.09-.91.19-.91.14-.92-.09-.94.33-.87.84.07.92.14.88.39.93.14.95-.14.9.32.95-.11.91.35L475,85l.93,0,.93.2.93-.05.94-.13h.93l.93.06.94.07.93-.15.94.06.92-.18.94-.06.93-.18,1,0,.92-.28.95,0,.95-.06.91-.38h1l.94-.17.91-.32.94-.13.94-.19.89-.35,1,0,.87-.45.93-.2,1-.08.84-.35,0,.91-.23.91-.23.9-.1.91.07.94-.34.89.09,1-.11.92-.1,1-1,.31-.89.36-1,.06-.85.51-.95.15-.91.31-1,0-.91.29-.92.25-.93.28-.95.1-.95.13-.94.18-.93.21-1,0-.92.34ZM434.35,87.2l.41-.69.42-.85.51-.78.43-.84.52-.78.49-.8.36-.88.42-.83.3-.89.51-.81.17-.94.51-.81.33-.88.16-.93.37-.86.37-.87.14-.93.32-.89.07-.94.23-.91.38-.88-.08-1,.21-.91.13-.92.11-.93.22-.91.15-.92-.07-.95.37-.88,0-.95.09-.92.37-.89.12-.93-.12-1,.34-.89-.07-1,.4-.88v-.94l0-.94.3-.91.06-.94V49.08l-.27-.65-.56-.48-.74,0-1,0-1,.2-1,.06-1,.18-1,0-1,.25h-1l-1,0-1,.32-1-.07L432,49l-1,.3-1,.16-.9.3V48.65l.33-1.07-.07-1.14,1.06.07.93.21,1-.08.93-.22h1l1,0,1-.12,1-.3,1,.13,1-.32,1-.11,1-.13,1,0,1-.17,1.09-.15.59-.93.48-.93.07-1,.36-.91.06-.94.09-.94.05-.95.22-.93.17-.94.12-.95.07-.91.16-.91-.27-.89,0-.93-.42-.82-.49-.76-.83-.72.94-.15.84-.44h1l.86-.35.86-.39.91-.19.9-.25.9-.24.9-.25.87-.36.94-.09.88-.33.92-.18.88-.34.91-.21-.2.93,0,1,0,1-.21.93-.12.94-.14,1-.32.92-.09.95-.16.94-.09,1,0,1-.26.93,0,1-.18,1-.17.94v1l-.32.92.07.76.31.71.66.4.74,0,1-.15,1-.06,1,0,1-.23,1,0,1-.28,1,.16,1-.18,1-.24,1-.09h1l1-.29,1-.18.84-.21,0,1.06L471,44.48l-.24,1.05-.82-.11-.95,0-.94.22-1-.08h-.91l-.91.09-.88.3-.9.12-.93-.07-.89.19-.92,0-.9.19-.92,0-.91.08-.91.17-1,.37-.76.79-.3,1-.28.93v1l-.23.94-.14.95-.16,1-.08,1v1l-.15,1-.18,1-.18.95-.18.94-.05,1-.11,1-.13,1-.13,1-.39.9-.2.93,0,1-.42.88-.31.91-.28.91-.4.87-.36.89-.37.89-.62.75-.32.92-.6.75-.55.79-.49.82-.66.7-.5.82-.59.76-.6.75-.79.58-.52.83-.81.54-.74.6-.65.71-.75.6-.75.6-.6.78L439,84l-.69.68-.81.51-.77.58-.86.45-.68.7Zm66.24-26.8-.81-.06-.94,0-.95,0-.95.11h-1l-1,0-.95.16-1,.08-1,.19-1,0-.94.3-1-.08-.95.09-.94.26h-1.94l-.95.22h-1l-.94.25-1,.06-1-.11-.94.34h-1l-1,.1-1,.12-1,0-1,.14-.92.42-.88.14,0-1.08.1-1.09.36-1,.82.18.95-.23.95.18.93-.28,1,.18.95-.22.95-.18,1,.07.95-.16.94-.23,1-.07,1,0,1,0,1-.2,1,0,.95-.21,1-.06,1-.18,1,.06.95-.25h1.94l.94-.32,1,.06,1-.08,1-.25,1-.11,1-.2,1-.35-.32,1.1.07,1.12Z"/><polygon class="cls-1" points="404.64 46.73 403.97 46.1 403.24 45.53 402.57 44.83 401.66 44.54 400.84 44.04 399.85 44.06 399.02 43.55 398.04 43.63 397.14 43.38 396.21 43.34 395.3 43.08 394.38 42.92 393.44 42.94 392.5 42.95 391.56 42.95 390.63 42.68 389.69 42.62 388.75 42.68 387.83 43 386.89 43.11 385.96 43.16 385.01 43.01 384.1 43.24 383.14 43.24 382.31 43.79 381.33 43.74 380.47 44.14 379.6 44.49 378.61 44.44 377.77 44.89 376.9 45.24 376.08 45.72 375.14 45.88 374.25 46.17 373.3 46.3 372.42 46.61 371.68 47.3 370.73 47.45 369.92 47.95 368.94 48.02 368.11 48.49 367.31 49.03 366.33 49.13 365.43 49.42 364.55 49.77 363.78 50.39 362.84 50.58 362.08 51.2 361.12 51.34 360.26 51.71 359.36 52.02 358.55 52.49 357.68 52.82 357.41 53.06 356.6 53.43 355.72 53.52 354.87 53.77 353.99 53.86 353.16 54.23 352.27 54.16 352.27 54.19 351.29 54.37 350.3 54.22 349.3 54.26 348.29 54.18 347.34 53.82 346.69 53.22 346.3 54.1 346.19 55.08 346.13 56.06 346.2 57.05 346.17 58.03 346.03 59.01 345.62 59.94 345.52 60.92 345.45 61.89 345.45 62.88 345.12 63.84 345.21 64.84 345.2 65.79 345.56 64.99 346.49 64.57 347.12 63.86 347.85 63.24 348.47 62.5 349.19 61.88 349.96 61.31 350.48 60.44 351.22 59.84 352.06 59.37 352.82 58.78 353.59 58.23 354.31 57.59 355.11 57.08 356.09 56.83 356.86 56.27 357.54 55.56 358.34 55.04 359.26 54.72 360.02 54.11 361.02 53.99 361.73 53.27 362.72 53.14 363.61 52.8 364.44 52.32 365.29 51.89 366.21 51.65 367.17 51.51 367.96 50.87 368.89 50.65 369.82 50.43 370.71 50.06 371.69 50.07 372.61 49.67 373.42 49.06 374.34 48.67 375.34 48.47 376.19 47.95 377.03 47.39 378.03 47.19 378.88 46.67 379.8 46.44 380.76 46.1 381.75 46.39 382.74 46.16 383.72 46.33 384.64 46.69 385.55 47.05 386.5 47.32 387.43 47.69 388.06 48.49 388.77 49.14 389.39 49.89 390.23 50.48 390.4 51.49 391.16 52.19 391.25 53.2 391.63 54.08 391.91 54.99 392.18 55.92 392.23 56.89 392.6 57.81 392.43 58.79 392.79 59.73 392.66 60.7 392.71 61.66 392.77 62.63 392.76 63.59 392.7 64.55 392.5 65.51 392.67 66.48 392.59 67.44 392.52 68.4 392.26 69.34 392.33 70.32 391.87 71.23 392.01 72.23 391.64 73.14 391.51 74.1 391.5 75.07 391.2 76 391.21 76.98 391.06 77.94 390.81 78.88 390.64 79.84 390.43 80.77 389.92 81.62 389.81 82.57 389.64 83.52 389.06 84.33 389 85.31 388.43 86.11 388.29 87.07 388.08 88 387.6 88.83 387.33 89.74 386.92 90.59 386.74 91.53 386.28 92.36 385.89 93.22 385.52 94.09 385.04 94.91 384.56 95.73 384.47 96.72 384.02 97.56 383.53 98.37 383.11 99.22 382.86 100.15 382.38 100.97 381.9 101.79 381.49 102.64 381.18 103.55 380.49 104.26 380.09 105.12 379.7 105.98 379.46 106.93 378.98 107.75 378.37 108.5 377.88 109.31 377.67 110.28 377.15 111.08 376.49 111.8 376.23 112.73 375.71 113.53 375.17 114.31 374.62 115.09 374.12 115.89 373.81 116.82 373.34 117.64 372.58 118.29 372.2 119.17 371.78 120.03 371.28 120.84 370.73 121.62 370.03 122.3 369.81 123.29 369.12 123.97 368.76 124.88 368.25 125.69 367.49 126.32 367.05 127.17 366.55 127.98 366.14 128.86 365.37 129.48 364.87 130.3 364.28 131.04 363.76 131.84 363.37 132.73 362.47 133.26 361.95 134.06 361.4 134.83 361.07 135.78 360.19 136.31 359.79 137.19 359.04 137.81 358.46 138.58 357.92 139.36 357.49 140.25 356.86 140.97 355.95 141.44 355.44 142.26 355.01 143.15 354.14 143.64 353.56 144.4 352.85 145.05 352.3 145.83 351.54 146.42 350.94 147.16 350.36 147.92 349.68 148.58 348.97 149.22 348.4 149.99 347.52 150.43 346.87 151.12 345.98 151.85 346.84 151.06 347.75 150.73 348.5 150.14 349.25 149.56 350.03 149.01 350.92 148.64 351.6 147.95 352.53 147.63 353.13 146.85 354.02 146.45 354.76 145.86 355.4 145.13 356.34 144.8 357.09 144.21 357.85 143.65 358.43 142.85 359.31 142.42 359.97 141.74 360.62 141.03 361.53 140.63 362.2 139.96 362.74 139.15 363.43 138.49 364.24 137.97 365 137.41 365.76 136.83 366.34 136.06 366.96 135.34 367.72 134.75 368.42 134.11 369.12 133.47 369.8 132.81 370.34 132.01 371.27 131.59 371.8 130.78 372.54 130.17 373.05 129.35 373.79 128.74 374.46 128.06 375.14 127.4 375.75 126.67 376.43 126 376.88 125.12 377.64 124.53 378.39 123.92 378.91 123.11 379.47 122.33 380.04 121.56 380.69 120.87 381.43 120.25 382.01 119.5 382.74 118.86 383.26 118.06 383.89 117.34 384.42 116.55 384.99 115.79 385.47 114.95 386.05 114.19 386.74 113.53 387.35 112.8 388.06 112.14 388.58 111.34 389.14 110.57 389.75 109.84 390.29 109.06 390.8 108.24 391.46 107.54 391.75 106.57 392.38 105.85 393.12 105.2 393.61 104.38 394.14 103.59 394.71 102.82 395.11 101.94 395.78 101.23 396.05 100.27 396.84 99.64 397.14 98.71 397.81 98 398.13 97.08 398.8 96.37 398.97 95.37 399.59 94.63 400.14 93.84 400.4 92.9 400.94 92.12 401.56 91.37 401.99 90.52 402.24 89.58 402.9 88.85 403.05 87.86 403.7 87.12 404.12 86.26 404.29 85.3 404.62 84.4 405.14 83.59 405.53 82.72 405.89 81.84 406.15 80.93 406.35 79.99 406.65 79.09 407.02 78.21 407.13 77.26 407.16 76.3 407.56 75.42 407.51 74.44 407.98 73.54 407.82 72.55 407.97 71.6 408.39 70.69 408.54 69.74 408.4 68.76 408.78 67.84 408.67 66.87 408.59 65.9 408.81 64.95 408.92 63.99 408.77 63.02 408.85 62.06 408.86 61.1 408.96 60.14 408.67 59.19 408.56 58.24 408.77 57.27 408.39 56.35 408.25 55.41 408.27 54.43 408.08 53.48 407.85 52.55 407.4 51.69 407.24 50.72 406.89 49.82 406.13 49.13 405.97 48.13 405.21 47.49 404.64 46.73"/><polygon class="cls-1" points="370.31 0 369.63 0.68 369.08 1.48 368.55 2.3 367.93 3.04 367.24 3.75 366.64 4.51 366.14 5.36 365.54 6.13 364.96 6.92 364.27 7.61 363.68 8.38 363.06 9.14 362.5 9.94 361.96 10.77 361.28 11.5 362.02 12.15 362.64 12.88 363.34 13.51 364.04 14.15 364.7 14.81 365.36 15.5 366.11 16.09 366.85 16.66 367.57 17.28 368.31 17.88 369.04 18.48 369.89 18.91 370.65 19.48 371.43 20.02 372.24 20.52 373.05 21 373.92 21.38 374.75 21.84 375.61 22.23 376.46 22.64 377.36 22.93 378.24 23.29 379.15 23.56 380.07 23.77 380.97 24.07 381.91 24.18 382.82 24.46 383.76 24.56 384.69 24.72 385.63 24.88 386.57 24.95 387.51 25.06 388.45 25.06 389.39 25.07 390.34 25.1 391.28 25.09 392.22 25.09 393.16 25.16 394.1 25.12 395.05 25.13 395.98 24.96 396.93 25.02 397.87 24.96 398.81 24.86 399.75 24.82 400.7 24.77 401.61 24.8 400.76 24.5 399.88 24.14 399 23.79 398.12 23.45 397.22 23.14 396.34 22.78 395.51 22.31 394.68 21.87 393.78 21.55 392.94 21.1 392.13 20.63 391.34 20.1 390.55 19.59 389.69 19.18 388.88 18.69 388.15 18.09 387.36 17.58 386.6 17.01 385.9 16.36 385.14 15.8 384.49 15.11 383.75 14.53 383.03 13.9 382.39 13.21 381.71 12.56 381 11.93 380.28 11.31 379.61 10.64 378.98 9.93 378.32 9.26 377.75 8.51 377.06 7.86 376.46 7.12 375.76 6.49 375.14 5.77 374.54 5.03 373.98 4.27 373.34 3.57 372.74 2.83 372.11 2.12 371.53 1.37 370.9 0.66 370.31 0"/><polygon class="cls-1" points="159.94 91.77 159.17 91.89 158.31 92.06 157.42 92.02 156.54 92.06 155.67 92.18 154.82 92.49 153.89 92.59 152.96 92.67 152.01 92.6 151.08 92.69 150.18 93.04 149.22 92.87 148.3 93.12 147.38 93.31 146.44 93.3 145.52 93.5 144.58 93.56 143.64 93.48 142.72 93.7 141.78 93.73 140.83 93.7 139.91 93.91 138.99 94.14 138.06 94.25 137.12 94.26 136.16 94.15 135.25 94.48 134.3 94.38 133.36 94.44 132.45 94.67 131.51 94.68 130.56 94.7 129.64 94.87 128.7 94.88 127.78 95.16 126.84 95.23 125.92 95.41 124.99 95.56 124.03 95.48 123.1 95.64 122.17 95.82 121.18 95.75 120.94 96.64 120.73 97.52 120.46 98.38 120.04 99.19 119.9 100.09 119.5 100.92 119.27 101.77 119.87 101.14 120.65 100.63 121.55 100.35 122.33 99.83 123.25 99.62 124.08 99.19 124.96 98.89 125.85 98.61 126.76 98.44 127.67 98.25 128.62 98.28 129.55 98.24 130.48 97.87 131.43 97.73 132.4 97.85 133.36 97.8 134.3 97.56 135.26 97.54 136.21 97.4 137.18 97.42 138.14 97.34 139.07 97.05 140.04 97.1 140.99 97.03 141.94 96.84 142.88 96.63 143.85 96.71 144.79 96.42 145.75 96.32 146.72 96.36 147.67 96.2 148.64 96.21 149.6 96.13 150.54 95.83 151.53 95.94 152.56 96.1 153.35 96.88 153.12 97.72 152.98 98.49 152.61 99.22 151.85 99.8 151.33 100.6 150.59 101.19 149.93 101.87 149.33 102.59 148.74 103.33 148.08 103.99 147.44 104.68 146.88 105.44 146.14 106.04 145.47 106.71 144.71 107.28 144.08 107.97 143.42 108.64 142.79 109.33 142.32 110.17 141.54 110.72 140.98 111.49 140.33 112.17 139.67 112.84 139.06 113.56 138.28 114.12 137.67 114.85 137.14 115.64 136.55 116.38 135.85 117.02 135.06 117.58 134.38 118.23 133.78 118.97 133.14 119.66 132.55 120.41 131.99 121.19 131.11 121.74 131.35 122.72 131.26 123.68 131.35 124.62 131.39 125.56 131.38 126.51 131.48 127.45 131.7 128.38 131.51 129.34 131.58 130.28 131.87 131.21 131.8 132.16 131.68 133.12 131.82 134.06 132.06 134.99 131.87 135.95 132.17 136.88 132.12 137.83 132.2 138.77 132.3 139.71 132.16 140.67 132.21 141.61 132.2 142.56 132.24 143.51 132.53 144.44 132.44 145.4 132.68 146.33 132.73 147.28 132.69 148.24 132.84 149.18 132.68 150.13 132.01 150.77 131.15 151.2 130.34 151.7 129.51 152.17 128.67 152.62 127.88 153.19 127 153.57 126.06 153.84 125.25 154.29 124.39 154.61 123.45 154.74 122.58 155.04 121.74 155.44 120.88 155.76 120 156.04 119.14 156.39 118.33 156.84 117.46 157.16 116.52 157.28 115.74 157.84 114.84 158.09 114 158.46 113.09 158.67 112.23 159.04 111.35 159.34 110.49 159.69 109.95 160 108.76 159.57 108.11 158.91 108.11 157.98 108.44 157.09 108.28 156.13 108.39 155.21 108.67 154.3 108.89 153.39 108.89 152.45 109.06 151.54 109.11 150.6 109.16 149.67 109.27 148.75 109.32 147.81 109.41 146.89 109.78 146 109.67 145.05 109.85 144.13 110.17 143.23 110.2 142.3 110.28 141.37 110.22 140.42 110.45 139.5 110.74 138.6 110.88 137.68 110.79 136.73 111.07 135.82 111.2 134.89 111.27 133.85 110.33 134.28 109.42 134.5 108.59 134.96 107.61 134.98 106.76 135.38 105.86 135.65 104.96 135.89 104.05 136.13 103.2 136.53 102.34 136.92 101.47 137.27 100.58 137.57 99.54 137.6 100.2 138.57 100.76 139.44 101.12 140.43 101.1 141.49 101.05 142.54 100.81 143.47 100.73 144.43 100.7 145.39 100.33 146.32 100.36 147.29 100.33 148.25 100.01 149.18 99.97 150.14 99.78 151.09 99.78 152.06 99.67 153.01 99.43 153.95 99.32 154.9 99.29 155.86 99.28 156.83 98.96 157.76 99.08 158.74 98.86 159.68 98.55 160.61 98.7 161.6 98.59 162.56 98.25 163.49 98.36 164.47 98.09 165.41 98.05 166.38 97.95 167.21 98.69 166.91 99.54 166.5 100.44 166.22 101.29 165.82 102.24 165.66 103.07 165.22 103.94 164.85 104.79 164.46 105.67 164.13 106.53 163.75 107.43 163.47 108.3 163.1 109.17 162.75 110.03 162.36 110.87 161.94 111.76 161.63 112.69 161.41 113.5 160.94 114.33 160.47 115.26 160.27 116.1 159.82 116.96 159.44 117.85 159.13 118.77 158.9 119.58 158.37 120.46 158.05 121.41 157.88 122.27 157.47 123.15 157.12 123.98 156.66 124.11 156.55 125.03 156.21 125.94 155.84 126.95 155.75 127.89 155.49 128.81 155.13 129.72 154.72 130.74 154.82 131.68 154.57 132.63 154.27 132.88 154.37 132.99 155.36 133 156.37 133.28 157.37 133.29 158.38 133.16 159.4 133.24 160.33 133.15 161.26 133.19 162.19 133 163.11 133.12 164.06 132.75 164.94 132.81 165.9 132.63 166.82 132.29 167.7 132.07 168.61 131.48 169.38 131.21 170.27 130.74 171.07 130.32 171.9 129.85 172.7 129.29 173.43 130.06 172.89 130.96 172.58 131.77 172.1 132.49 171.5 133.26 170.97 134.04 170.44 134.68 169.76 135.51 169.28 136.07 168.51 136.67 167.79 137.33 167.13 137.95 166.42 138.5 165.65 138.89 164.79 139.42 164.02 139.76 163.14 140.32 162.37 140.78 161.54 140.98 160.62 141.27 159.72 141.5 158.82 141.75 157.91 142.24 157.07 142.29 156.12 142.54 155.22 142.5 154.26 142.69 153.34 143.01 152.44 142.91 151.48 143.03 150.55 143.09 149.61 142.97 148.67 142.96 147.73 143.14 146.79 143.04 145.86 143.1 144.92 143.06 143.99 143.2 143.05 143.18 142.11 143.09 141.17 143.06 140.23 143.26 139.29 143.14 138.35 143.13 137.41 142.99 136.47 143.23 135.54 143.25 134.6 143.01 133.66 143.26 132.72 143.31 131.78 142.99 130.84 143.23 129.9 143.08 128.95 143.09 128.01 143.12 127.07 143.07 126.13 143.13 125.19 143.18 124.25 143.24 123.31 143.21 122.37 143.06 121.43 143.11 120.49 143.14 119.55 143.32 118.6 143.22 117.66 143.02 116.72 143.18 115.78 143.07 114.83 143.33 113.89 143.24 112.94 143.07 111.99 143.36 111.11 143.79 110.31 144.45 109.63 145.06 108.91 145.71 108.22 146.3 107.47 146.88 106.72 147.5 106.01 148.25 105.4 148.88 104.7 149.4 103.91 150.04 103.22 150.74 102.57 151.27 101.77 151.81 100.98 152.64 100.45 153.27 99.75 153.69 98.85 154.36 98.18 155.1 97.56 155.65 96.78 156.19 95.99 156.96 95.39 157.42 94.54 158.04 93.81 158.68 93.11 159.42 92.47 159.94 91.77"/><polygon class="cls-1" points="159.88 124.53 160.45 125.29 161.04 126.03 161.62 126.77 162.22 127.5 162.81 128.24 163.33 129.03 163.87 129.81 164.33 130.63 164.78 131.46 165.2 132.3 165.67 133.12 166.05 133.98 166.43 134.85 166.79 135.72 167.13 136.6 167.46 137.48 167.81 138.35 168.05 139.27 168.33 140.17 168.6 141.07 168.89 141.97 169.11 142.88 169.32 143.8 169.52 144.72 169.79 145.63 170.05 146.54 170.17 147.48 170.39 148.39 170.62 149.31 170.77 150.25 171.02 151.16 171.14 152.1 171.33 153 172.18 152.57 172.99 152.07 173.77 151.52 174.62 151.06 175.42 150.54 176.25 150.07 177.04 149.53 177.89 149.09 178.71 148.58 179.54 148.11 180.39 147.63 180.17 146.66 179.9 145.75 179.55 144.85 179.29 143.94 178.94 143.05 178.63 142.15 178.3 141.26 177.92 140.38 177.5 139.53 177.13 138.66 176.7 137.81 176.24 136.97 175.71 136.18 175.2 135.37 174.59 134.64 174.04 133.86 173.43 133.13 172.71 132.5 172.02 131.85 171.36 131.16 170.62 130.57 169.85 130.01 169.08 129.46 168.29 128.92 167.5 128.4 166.64 128 165.83 127.5 164.99 127.06 164.16 126.6 163.28 126.25 162.46 125.78 161.58 125.4 160.75 124.95 159.88 124.53"/></g></g></svg>
